<?xml version="1.0" standalone="no"?>
<!DOCTYPE svg PUBLIC "-//W3C//DTD SVG 20010904//EN"
 "http://www.w3.org/TR/2001/REC-SVG-20010904/DTD/svg10.dtd">
<svg version="1.0" xmlns="http://www.w3.org/2000/svg"
 width="700.000000pt" height="700.000000pt" viewBox="0 0 700.000000 700.000000"
 preserveAspectRatio="xMidYMid meet">
<metadata>
Created by potrace 1.14, written by Peter Selinger 2001-2017
</metadata>
<g transform="translate(0.000000,700.000000) scale(0.100000,-0.100000)"
fill="#000000" stroke="none">
<path d="M3357 6236 c-124 -52 -226 -157 -311 -316 -58 -111 -187 -402 -181
-408 3 -3 -1 -12 -9 -21 -7 -9 -41 -86 -74 -171 -221 -564 -323 -1021 -323
-1448 0 -241 33 -478 105 -760 l24 -93 -36 -78 -37 -77 -57 46 c-188 152 -441
174 -648 57 -63 -36 -172 -139 -793 -755 -246 -245 -447 -451 -447 -458 0 -8
9 -23 20 -34 11 -11 17 -20 13 -20 -4 0 2 -7 13 -15 10 -8 15 -15 10 -15 -6 0
-1 -7 10 -15 10 -8 16 -15 12 -15 -8 0 12 -27 45 -62 10 -10 23 -16 29 -12 7
4 8 3 4 -5 -4 -6 -13 -9 -19 -5 -7 3 -3 -1 7 -10 10 -8 23 -13 27 -10 5 3 6
-2 3 -10 -5 -14 14 -42 67 -98 15 -15 24 -31 20 -35 -3 -4 2 -1 11 6 10 7 15
18 11 24 -3 6 -1 7 5 3 12 -7 38 18 794 756 393 385 396 388 438 388 36 0 48
-6 97 -52 30 -29 68 -69 84 -89 l29 -37 -46 -98 c-57 -122 -62 -148 -36 -207
15 -34 31 -51 61 -66 36 -19 58 -21 214 -21 171 0 173 0 208 -26 68 -52 205
-104 275 -104 19 0 38 -8 50 -21 10 -12 31 -29 46 -39 l27 -16 -40 -60 c-116
-174 -113 -345 11 -581 26 -50 72 -124 103 -165 97 -129 239 -248 295 -248 50
0 121 107 181 273 29 81 41 103 57 105 16 2 27 -7 42 -32 12 -20 28 -36 35
-36 25 0 87 79 123 154 55 116 77 221 72 346 -4 87 -9 115 -31 164 -15 33 -26
60 -25 61 2 1 24 7 49 14 82 23 145 90 158 171 l6 35 280 5 c256 5 283 7 313
25 36 22 72 86 72 130 0 16 -64 167 -144 339 -79 171 -163 353 -187 404 l-42
93 34 33 c19 18 176 170 349 337 173 168 513 496 755 729 242 234 606 584 808
779 202 195 367 357 367 359 0 11 -315 327 -326 327 -11 0 -537 -505 -1059
-1015 -355 -347 -853 -830 -857 -830 -2 0 -4 78 -4 173 -2 249 -35 480 -109
777 -52 206 -157 528 -176 541 -5 3 -10 16 -11 30 -1 17 -8 24 -24 24 -25 0
-22 -15 4 -16 14 0 13 -2 -3 -9 -14 -6 -15 -9 -5 -9 11 -1 16 -12 16 -37 0
-29 -3 -34 -18 -31 -10 3 -18 1 -18 -3 0 -5 10 -11 23 -13 21 -4 21 -4 -3 -6
-23 -2 -24 -3 -5 -11 l20 -9 -20 -1 -20 -1 20 -9 c18 -8 18 -9 -5 -10 -25 -1
-25 -1 5 -15 30 -14 30 -14 3 -9 -17 4 -28 2 -28 -5 0 -6 6 -11 13 -11 8 0 8
-3 -2 -9 -8 -5 -21 -7 -29 -3 -10 3 -13 1 -8 -7 4 -6 16 -9 27 -6 10 4 19 2
19 -4 0 -5 -12 -11 -27 -13 l-28 -4 25 -11 c24 -11 24 -12 3 -12 -12 -1 -25
-6 -29 -13 -5 -8 0 -9 14 -6 30 8 28 -6 -2 -20 -25 -11 -30 -41 -11 -72 4 -8
-5 -4 -21 10 -15 14 -23 17 -16 8 10 -12 11 -22 3 -37 -6 -11 -11 -26 -11 -33
1 -7 7 0 14 17 6 16 14 25 17 20 3 -6 -2 -25 -12 -43 -11 -21 -19 -28 -23 -20
-3 7 -3 -3 0 -22 4 -27 3 -32 -6 -20 -8 11 -10 6 -6 -25 3 -22 3 -32 0 -22
-11 35 -27 17 -21 -24 4 -32 2 -39 -9 -35 -9 3 -14 -1 -15 -12 0 -12 -2 -13
-6 -4 -3 8 0 25 8 38 7 13 9 27 6 31 -4 3 -7 -1 -7 -10 0 -9 -4 -17 -10 -17
-5 0 -10 9 -10 20 0 30 -37 117 -71 166 -96 140 -234 214 -407 219 -51 1 -96
6 -100 10 -4 5 0 4 8 0 13 -7 13 -6 2 7 -7 9 -11 28 -8 42 3 16 0 26 -7 26 -7
0 -6 4 3 10 11 7 11 10 2 10 -10 0 -12 12 -8 44 3 29 0 47 -7 50 -8 3 -7 8 3
15 10 7 11 11 3 11 -9 0 -12 16 -10 55 2 31 1 77 -3 102 l-7 46 359 -6 c310
-5 360 -3 365 9 9 25 -172 418 -246 532 -94 145 -204 214 -351 219 -72 3 -94
0 -143 -21z m773 -1320 c-7 -7 -13 -7 -20 0 -6 6 -3 10 10 10 13 0 16 -4 10
-10z m-3299 -3473 c13 -16 12 -17 -3 -4 -10 7 -18 15 -18 17 0 8 8 3 21 -13z"/>
<path d="M4162 5190 c0 -14 2 -19 5 -12 2 6 2 18 0 25 -3 6 -5 1 -5 -13z"/>
<path d="M530 1723 c0 -7 53 -83 57 -83 3 0 -5 16 -16 36 -12 19 -19 39 -17
43 3 4 -1 8 -9 8 -8 0 -15 -2 -15 -4z"/>
</g>
</svg>
